Note: This torrent contains both a DVD ISO and an MP4 Video of the concert so I suggest you select whichever you prefer. The MP4@720p approaches HD video quality.

BBC Proms 2011, Number 30 
Recorded 6 August
Broadcast on BBC2 on 13 August
Thanks to GringoLoco & the BBC

Gabriel Prokofiev:
Concerto for Turntables and Orchestra (21 mins)
DJ Switch: turntables

Britten:
Piano Concerto (35 mins)
Benjamin Grosvenor: piano
Encore - Morton Gould: Boogie Woogie Etude (2 mins)

Short interval

Sergei Prokofiev:
Romeo and Juliet - selection (50 mins)

National Youth Orchestra of Great Britain
Vladimir Jurowski: conductor

****************************************************

Format: DVD ISO PAL 16:9
Runtime: 2:06

Video
ID : 224 (0xE0)
Format : MPEG Video
Format version : Version 2
Format profile : Main@Main
Format settings, BVOP : Yes
Format settings, Matrix : Default
Bit rate mode : Variable
Bit rate : 3 418 Kbps
Nominal bit rate : 9 544 Kbps
Width : 720 pixels
Height : 576 pixels
Display aspect ratio : 16:9
Frame rate : 25.000 fps
Standard : PAL
Color space : YUV
Chroma subsampling : 4:2:0
Bit depth : 8 bits
Scan type : Interlaced
Scan order : Top Field First
Compression mode : Lossy
Bits/(Pixel*Frame) : 0.330

Audio
ID : 192 (0xC0)
Format : MPEG Audio
Format version : Version 1
Format profile : Layer 2
Bit rate mode : Constant
Bit rate : 256 Kbps
Channel(s) : 2 channels
Sampling rate : 48.0 KHz
Compression mode : Lossy

******************************************************

Format MP4 720p
Runtime: 2:06

Video
ID : 1
Format : AVC
Format/Info : Advanced Video Codec
Format profile : High@L4.1
Format settings, CABAC : Yes
Format settings, ReFrames : 6 frames
Codec ID : avc1
Codec ID/Info : Advanced Video Coding
Duration : 2h 6mn
Bit rate mode : Variable
Bit rate : 2 644 Kbps
Maximum bit rate : 3 500 Kbps
Width : 1 280 pixels
Height : 720 pixels
Display aspect ratio : 16:9
Frame rate mode : Constant
Frame rate : 25.000 fps
Standard : PAL
Color space : YUV
Chroma subsampling : 4:2:0
Bit depth : 8 bits
Scan type : Progressive
Bits/(Pixel*Frame) : 0.115
Stream size : 2.34 GiB (96%)

Audio
ID : 2
Format : AAC
Format/Info : Advanced Audio Codec
Format profile : HE-AAC / LC
Codec ID : 40
Duration : 2h 6mn
Bit rate mode : Variable
Bit rate : 96.0 Kbps
Channel(s) : 2 channels
Channel positions : Front: L R
Sampling rate : 48.0 KHz / 24.0 KHz
Compression mode : Lossy
Stream size : 85.7 MiB (3%)